<svg xmlns="http://www.w3.org/2000/svg" viewBox="0 0 1600 900" fill="none">
  <defs>
    <linearGradient id="poster-water" x1="0" y1="0" x2="0" y2="1">
      <stop offset="0%" stop-color="#dff5ff"/>
      <stop offset="48%" stop-color="#77cde4"/>
      <stop offset="100%" stop-color="#1e657d"/>
    </linearGradient>
    <radialGradient id="poster-glow" cx="0" cy="0" r="1" gradientTransform="translate(760 260) rotate(90) scale(430 760)">
      <stop offset="0%" stop-color="rgba(255,255,255,0.68)"/>
      <stop offset="100%" stop-color="rgba(255,255,255,0)"/>
    </radialGradient>
    <linearGradient id="poster-floor" x1="0" y1="0" x2="1" y2="0">
      <stop offset="0%" stop-color="#a88449"/>
      <stop offset="50%" stop-color="#d8b06a"/>
      <stop offset="100%" stop-color="#9a7440"/>
    </linearGradient>
    <linearGradient id="poster-floor-shadow" x1="0" y1="0" x2="0" y2="1">
      <stop offset="0%" stop-color="rgba(0,0,0,0)"/>
      <stop offset="100%" stop-color="rgba(0,0,0,0.28)"/>
    </linearGradient>
    <linearGradient id="sub-fin-gradient" x1="0" y1="0" x2="1" y2="1">
      <stop offset="0%" stop-color="#efbf52"/>
      <stop offset="100%" stop-color="#9f651c"/>
    </linearGradient>
    <linearGradient id="sub-hull-gradient" x1="0" y1="0" x2="1" y2="1">
      <stop offset="0%" stop-color="#f6d45f"/>
      <stop offset="55%" stop-color="#d9a63a"/>
      <stop offset="100%" stop-color="#b57a22"/>
    </linearGradient>
    <linearGradient id="sub-tower-gradient" x1="0" y1="0" x2="1" y2="1">
      <stop offset="0%" stop-color="#f3dc82"/>
      <stop offset="100%" stop-color="#c8902e"/>
    </linearGradient>
    <filter id="poster-shadow" x="-20%" y="-20%" width="140%" height="160%">
      <feDropShadow dx="0" dy="28" stdDeviation="28" flood-color="#114157" flood-opacity="0.22"/>
    </filter>
  </defs>

  <rect width="1600" height="900" fill="url(#poster-water)"/>
  <rect width="1600" height="900" fill="url(#poster-glow)"/>

  <path d="M0 676C158 640 266 650 404 694C536 736 640 748 796 716C984 676 1112 640 1276 666C1402 686 1498 716 1600 756V900H0V676Z" fill="url(#poster-floor)"/>
  <path d="M0 710C208 684 364 704 544 762C700 812 890 818 1078 766C1242 720 1418 710 1600 752V900H0V710Z" fill="url(#poster-floor-shadow)"/>

  <g fill="rgba(255,255,255,0.48)">
    <circle cx="170" cy="246" r="12"/>
    <circle cx="204" cy="196" r="18"/>
    <circle cx="238" cy="134" r="10"/>
    <circle cx="1234" cy="300" r="14"/>
    <circle cx="1278" cy="238" r="20"/>
    <circle cx="1326" cy="160" r="11"/>
    <circle cx="1380" cy="92" r="8"/>
  </g>

  <g opacity="0.22" stroke="#f6fcff" stroke-width="18" stroke-linecap="round">
    <path d="M286 58C320 170 332 290 310 408"/>
    <path d="M648 24C674 154 676 314 646 462"/>
    <path d="M1014 42C1040 166 1042 308 1020 430"/>
  </g>

  <g filter="url(#poster-shadow)" transform="translate(164 210) scale(5.8)">
    <path d="M37 61C26 48 24 36 31 25C44 36 48 49 47 61C48 73 44 86 31 97C24 86 26 74 37 61Z" fill="url(#sub-fin-gradient)"/>
    <g>
      <circle cx="26" cy="61" r="3.8" fill="#73461b"/>
      <path d="M26 58C32 47 41 44 47 49C41 55 34 60 26 61Z" fill="#946228"/>
      <path d="M28 63C40 66 46 74 43 81C34 77 28 70 26 62Z" fill="#946228"/>
      <path d="M23 62C15 72 6 75 1 70C7 65 14 60 23 59Z" fill="#946228"/>
    </g>
    <path d="M41 61C41 45 56 34 84 34H145C174 34 194 46 200 61C194 76 174 88 145 88H84C56 88 41 77 41 61Z" fill="url(#sub-hull-gradient)"/>
    <path d="M67 42C87 36 112 36 141 38C160 39 178 47 188 58C171 50 151 47 128 47H77C73 47 70 46 67 42Z" fill="rgba(255,255,255,0.2)"/>
    <path d="M41 61C41 45 56 34 84 34H145C174 34 194 46 200 61C194 76 174 88 145 88H84C56 88 41 77 41 61Z" stroke="rgba(118,86,28,0.55)" stroke-width="2.2"/>
    <path d="M106 34C106 24 115 18 128 18H146C155 18 161 24 161 34V39H106Z" fill="url(#sub-tower-gradient)"/>
    <path d="M106 34C106 24 115 18 128 18H146C155 18 161 24 161 34V39H106Z" stroke="rgba(118,86,28,0.55)" stroke-width="2"/>
    <path d="M139 18V9C139 6 141 4 144 4H156" stroke="rgba(120,88,39,0.7)" stroke-width="5" stroke-linecap="round" stroke-linejoin="round"/>
    <circle cx="158" cy="4" r="3" fill="#8a6230"/>
    <path d="M91 88C101 98 104 104 121 101C122 94 113 89 91 88Z" fill="url(#sub-fin-gradient)"/>
    <path d="M70 61H166" stroke="rgba(122,86,27,0.38)" stroke-width="2.1" stroke-linecap="round"/>
    <circle cx="59" cy="61" r="2.1" fill="rgba(138,96,33,0.62)"/>
    <circle cx="176" cy="61" r="2.1" fill="rgba(138,96,33,0.62)"/>
    <g>
      <circle cx="88" cy="61" r="10.5" fill="#b07a28"/>
      <circle cx="88" cy="61" r="6.6" fill="#8fd7d6"/>
      <circle cx="85.4" cy="58.4" r="1.7" fill="rgba(255,255,255,0.82)"/>
      <circle cx="116" cy="61" r="10.5" fill="#b07a28"/>
      <circle cx="116" cy="61" r="6.6" fill="#8fd7d6"/>
      <circle cx="113.4" cy="58.4" r="1.7" fill="rgba(255,255,255,0.82)"/>
      <circle cx="144" cy="61" r="10.5" fill="#b07a28"/>
      <circle cx="144" cy="61" r="6.6" fill="#8fd7d6"/>
      <circle cx="141.4" cy="58.4" r="1.7" fill="rgba(255,255,255,0.82)"/>
    </g>
  </g>
</svg>
