<svg xmlns="http://www.w3.org/2000/svg" viewBox="0 0 24 24" fill="none">
  <path d="M3.2 9.1C4.4 8.1 5.3 8.1 6.5 9.1C7.7 10.1 8.6 10.1 9.8 9.1C11 8.1 11.9 8.1 13.1 9.1C14.3 10.1 15.2 10.1 16.4 9.1C17.6 8.1 18.5 8.1 19.7 9.1" stroke="#000" stroke-width="1.55" stroke-linecap="round" stroke-linejoin="round"/>
  <path d="M3.2 12.6C4.4 11.6 5.3 11.6 6.5 12.6C7.7 13.6 8.6 13.6 9.8 12.6C11 11.6 11.9 11.6 13.1 12.6C14.3 13.6 15.2 13.6 16.4 12.6C17.6 11.6 18.5 11.6 19.7 12.6" stroke="#000" stroke-width="1.55" stroke-linecap="round" stroke-linejoin="round"/>
  <path d="M3.2 16.1C4.4 15.1 5.3 15.1 6.5 16.1C7.7 17.1 8.6 17.1 9.8 16.1C11 15.1 11.9 15.1 13.1 16.1C14.3 17.1 15.2 17.1 16.4 16.1C17.6 15.1 18.5 15.1 19.7 16.1" stroke="#000" stroke-width="1.55" stroke-linecap="round" stroke-linejoin="round"/>
  <circle cx="17.1" cy="5.8" r="1.2" stroke="#000" stroke-width="1.55"/>
  <circle cx="14.4" cy="4.1" r="0.72" stroke="#000" stroke-width="1.35"/>
</svg>
